<?xml version="1.0" standalone="no"?>
<!DOCTYPE svg PUBLIC "-//W3C//DTD SVG 20010904//EN"
 "http://www.w3.org/TR/2001/REC-SVG-20010904/DTD/svg10.dtd">
<svg version="1.0" xmlns="http://www.w3.org/2000/svg"
 width="200.000000pt" height="200.000000pt" viewBox="0 0 200.000000 200.000000"
 preserveAspectRatio="xMidYMid meet">
<metadata>
Created by potrace 1.11, written by Peter Selinger 2001-2013
</metadata>
<g transform="translate(0.000000,200.000000) scale(0.100000,-0.100000)"
fill="#000000" stroke="none">
<path d="M1010 1989 c-180 -12 -308 -64 -428 -174 -72 -65 -164 -204 -174
-260 -1 -11 -8 -26 -15 -32 -6 -7 -12 -41 -13 -75 -1 -35 -2 -76 -2 -93 -1
-27 4 -78 17 -175 4 -29 17 -89 50 -238 3 -13 24 -64 46 -115 23 -51 43 -101
46 -112 2 -11 -19 -73 -46 -138 -28 -65 -51 -121 -51 -126 0 -5 -7 -15 -16
-22 -17 -14 -46 -73 -83 -167 -29 -72 -16 -137 33 -172 23 -16 170 -80 198
-85 35 -7 88 16 111 48 28 38 87 172 87 197 0 17 11 48 50 135 9 22 27 65 39
95 l23 55 81 29 c260 90 503 258 621 429 31 46 60 107 83 177 21 64 26 242 9
308 -8 29 -14 53 -15 55 -1 11 -19 54 -48 115 -40 82 -122 177 -188 219 -25
15 -45 31 -45 36 0 4 -7 7 -15 7 -8 0 -23 4 -33 10 -48 26 -121 52 -155 55
-21 2 -43 7 -50 12 -7 5 -59 5 -117 2z m-325 -1459 c55 -23 104 -45 108 -49 4
-4 -6 -41 -23 -82 -49 -117 -51 -120 -74 -113 -18 5 -227 94 -233 98 -1 1 9
25 22 54 13 29 25 56 26 60 2 4 9 24 18 45 18 46 15 46 156 -13z"/>
</g>
</svg>
